<svg width="148" height="36" viewBox="0 0 148 36" fill="none" xmlns="http://www.w3.org/2000/svg">
<path d="M55.3884 24.976C53.5404 22.6 52.6164 19.528 52.6164 15.76C52.6164 11.992 53.5404 8.932 55.3884 6.58C57.2604 4.204 60.0564 3.016 63.7764 3.016C67.4964 3.016 70.2804 4.204 72.1284 6.58C74.0004 8.932 74.9364 11.992 74.9364 15.76C74.9364 19.528 74.0004 22.6 72.1284 24.976C70.2804 27.328 67.4964 28.504 63.7764 28.504C60.0564 28.504 57.2604 27.328 55.3884 24.976ZM63.7764 23.752C67.6164 23.752 69.5364 21.088 69.5364 15.76C69.5364 10.432 67.6164 7.768 63.7764 7.768C59.9364 7.768 58.0164 10.432 58.0164 15.76C58.0164 21.088 59.9364 23.752 63.7764 23.752ZM78.7543 5.608C81.1783 3.88 83.9863 3.016 87.1783 3.016C89.7943 3.016 91.9303 3.628 93.5863 4.852C95.2663 6.076 96.1063 7.876 96.1063 10.252C96.1063 12.1 95.5063 13.684 94.3063 15.004C93.1303 16.3 91.5223 17.548 89.4823 18.748C87.0823 20.164 85.6063 21.124 85.0543 21.628C84.4063 22.252 84.0703 22.84 84.0463 23.392L96.2863 23.356V28H77.9263V25.588C77.9263 24.268 78.1183 23.08 78.5023 22.024C78.9103 20.968 79.5583 20.02 80.4463 19.18C81.3583 18.34 82.1143 17.716 82.7143 17.308C83.3143 16.876 84.2263 16.3 85.4503 15.58C85.5223 15.532 85.5823 15.496 85.6303 15.472C85.6783 15.448 85.7383 15.412 85.8103 15.364C85.8823 15.316 85.9423 15.28 85.9903 15.256C86.1343 15.16 86.4343 14.992 86.8903 14.752C87.3703 14.488 87.6823 14.308 87.8263 14.212C87.9703 14.116 88.2223 13.96 88.5823 13.744C88.9423 13.504 89.1943 13.324 89.3383 13.204C89.4823 13.06 89.6623 12.868 89.8783 12.628C90.1183 12.388 90.2863 12.172 90.3823 11.98C90.4783 11.788 90.5623 11.56 90.6343 11.296C90.7063 11.032 90.7423 10.756 90.7423 10.468C90.7423 9.58 90.3823 8.908 89.6623 8.452C88.9423 7.972 87.9463 7.732 86.6743 7.732C83.9383 7.732 81.2983 8.704 78.7543 10.648V5.608Z" fill="#2F80ED"/>
<path d="M40.3301 15.5L36 11.1699L31.6699 15.5L36 19.8301L40.3301 15.5ZM0 16.25H36V14.75H0V16.25Z" fill="#2F80ED"/>
<path d="M107.67 15.5L112 19.8301L116.33 15.5L112 11.1699L107.67 15.5ZM112 16.25H148V14.75H112V16.25Z" fill="#2F80ED"/>
</svg>
