<svg width="148" height="36" viewBox="0 0 148 36" fill="none" xmlns="http://www.w3.org/2000/svg">
<path d="M55.3884 24.976C53.5404 22.6 52.6164 19.528 52.6164 15.76C52.6164 11.992 53.5404 8.932 55.3884 6.58C57.2604 4.204 60.0564 3.016 63.7764 3.016C67.4964 3.016 70.2804 4.204 72.1284 6.58C74.0004 8.932 74.9364 11.992 74.9364 15.76C74.9364 19.528 74.0004 22.6 72.1284 24.976C70.2804 27.328 67.4964 28.504 63.7764 28.504C60.0564 28.504 57.2604 27.328 55.3884 24.976ZM63.7764 23.752C67.6164 23.752 69.5364 21.088 69.5364 15.76C69.5364 10.432 67.6164 7.768 63.7764 7.768C59.9364 7.768 58.0164 10.432 58.0164 15.76C58.0164 21.088 59.9364 23.752 63.7764 23.752ZM95.4583 9.784C95.4583 11.032 95.1223 12.124 94.4503 13.06C93.8023 13.972 92.9023 14.632 91.7503 15.04C93.1183 15.448 94.2463 16.18 95.1343 17.236C96.0223 18.268 96.4663 19.624 96.4663 21.304C96.4663 22.552 96.1903 23.656 95.6383 24.616C95.1103 25.552 94.3783 26.296 93.4423 26.848C92.5063 27.4 91.4623 27.808 90.3103 28.072C89.1823 28.36 87.9703 28.504 86.6743 28.504C83.6743 28.504 80.8423 27.952 78.1783 26.848V21.844C80.5303 23.164 83.2183 23.8 86.2423 23.752C87.7543 23.752 88.9783 23.488 89.9143 22.96C90.8503 22.432 91.3183 21.628 91.3183 20.548C91.3183 18.652 89.9023 17.704 87.0703 17.704H83.0383L83.0743 13.096L86.4583 13.132C87.6823 13.132 88.6303 12.916 89.3023 12.484C89.9983 12.028 90.3463 11.38 90.3463 10.54C90.3463 9.652 89.9623 8.968 89.1943 8.488C88.4263 7.984 87.3103 7.732 85.8463 7.732C83.4223 7.732 81.0103 8.464 78.6103 9.928V4.924C80.9623 3.652 83.6263 3.016 86.6023 3.016C89.2423 3.016 91.3783 3.604 93.0103 4.78C94.6423 5.956 95.4583 7.624 95.4583 9.784Z" fill="#2F80ED"/>
<path d="M40.3301 15.5L36 11.1699L31.6699 15.5L36 19.8301L40.3301 15.5ZM0 16.25H36V14.75H0V16.25Z" fill="#2F80ED"/>
<path d="M107.67 15.5L112 19.8301L116.33 15.5L112 11.1699L107.67 15.5ZM112 16.25H148V14.75H112V16.25Z" fill="#2F80ED"/>
</svg>
