<svg width="148" height="36" viewBox="0 0 148 36" fill="none" xmlns="http://www.w3.org/2000/svg">
<path d="M57.8141 24.976C55.9661 22.6 55.0421 19.528 55.0421 15.76C55.0421 11.992 55.9661 8.932 57.8141 6.58C59.6861 4.204 62.4821 3.016 66.2021 3.016C69.9221 3.016 72.7061 4.204 74.5541 6.58C76.4261 8.932 77.3621 11.992 77.3621 15.76C77.3621 19.528 76.4261 22.6 74.5541 24.976C72.7061 27.328 69.9221 28.504 66.2021 28.504C62.4821 28.504 59.6861 27.328 57.8141 24.976ZM66.2021 23.752C70.0421 23.752 71.9621 21.088 71.9621 15.76C71.9621 10.432 70.0421 7.768 66.2021 7.768C62.3621 7.768 60.4421 10.432 60.4421 15.76C60.4421 21.088 62.3621 23.752 66.2021 23.752ZM86.6881 3.52H90.6121V23.356H94.7161V28H80.7481V23.356H85.3561V8.92L80.7481 10.648V5.788L86.6881 3.52Z" fill="#2F80ED"/>
<path d="M40.3301 15.5L36 11.1699L31.6699 15.5L36 19.8301L40.3301 15.5ZM0 16.25H36V14.75H0V16.25Z" fill="#2F80ED"/>
<path d="M107.67 15.5L112 19.8301L116.33 15.5L112 11.1699L107.67 15.5ZM112 16.25H148V14.75H112V16.25Z" fill="#2F80ED"/>
</svg>
