<svg width="148" height="36" viewBox="0 0 148 36" fill="none" xmlns="http://www.w3.org/2000/svg">
<path d="M55.5114 24.976C53.6634 22.6 52.7394 19.528 52.7394 15.76C52.7394 11.992 53.6634 8.932 55.5114 6.58C57.3834 4.204 60.1794 3.016 63.8994 3.016C67.6194 3.016 70.4034 4.204 72.2514 6.58C74.1234 8.932 75.0594 11.992 75.0594 15.76C75.0594 19.528 74.1234 22.6 72.2514 24.976C70.4034 27.328 67.6194 28.504 63.8994 28.504C60.1794 28.504 57.3834 27.328 55.5114 24.976ZM63.8994 23.752C67.7394 23.752 69.6594 21.088 69.6594 15.76C69.6594 10.432 67.7394 7.768 63.8994 7.768C60.0594 7.768 58.1394 10.432 58.1394 15.76C58.1394 21.088 60.0594 23.752 63.8994 23.752ZM79.8134 3.484H95.3654V8.128L84.6734 8.092L84.3494 12.88C85.5014 12.64 86.5574 12.52 87.5174 12.52C90.1574 12.52 92.3054 13.156 93.9614 14.428C95.6414 15.7 96.4814 17.668 96.4814 20.332C96.4814 23.02 95.4854 25.06 93.4934 26.452C91.5014 27.82 89.0414 28.504 86.1134 28.504C83.1374 28.504 80.5094 27.952 78.2294 26.848V21.844C80.2694 23.14 82.6934 23.788 85.5014 23.788C87.1814 23.788 88.5254 23.488 89.5334 22.888C90.5654 22.288 91.0814 21.412 91.0814 20.26C91.0814 17.86 89.0894 16.66 85.1054 16.66C82.9454 16.66 80.8934 17.008 78.9494 17.704L79.8134 3.484Z" fill="#2F80ED"/>
<path d="M40.3301 15.5L36 11.1699L31.6699 15.5L36 19.8301L40.3301 15.5ZM0 16.25H36V14.75H0V16.25Z" fill="#2F80ED"/>
<path d="M107.67 15.5L112 19.8301L116.33 15.5L112 11.1699L107.67 15.5ZM112 16.25H148V14.75H112V16.25Z" fill="#2F80ED"/>
</svg>
