<svg width="148" height="36" viewBox="0 0 148 36" fill="none" xmlns="http://www.w3.org/2000/svg">
<path d="M53.8161 24.976C51.9681 22.6 51.0441 19.528 51.0441 15.76C51.0441 11.992 51.9681 8.932 53.8161 6.58C55.6881 4.204 58.4841 3.016 62.2041 3.016C65.9241 3.016 68.7081 4.204 70.5561 6.58C72.4281 8.932 73.3641 11.992 73.3641 15.76C73.3641 19.528 72.4281 22.6 70.5561 24.976C68.7081 27.328 65.9241 28.504 62.2041 28.504C58.4841 28.504 55.6881 27.328 53.8161 24.976ZM62.2041 23.752C66.0441 23.752 67.9641 21.088 67.9641 15.76C67.9641 10.432 66.0441 7.768 62.2041 7.768C58.3641 7.768 56.4441 10.432 56.4441 15.76C56.4441 21.088 58.3641 23.752 62.2041 23.752ZM88.3421 3.52H93.7061V19.036H97.4141V23.536H93.7061V28H88.5581V23.536H75.7061V19.072L88.3421 3.52ZM88.5581 19.036V10.108L81.3221 19.036H88.5581Z" fill="#2F80ED"/>
<path d="M40.3301 15.5L36 11.1699L31.6699 15.5L36 19.8301L40.3301 15.5ZM0 16.25H36V14.75H0V16.25Z" fill="#2F80ED"/>
<path d="M107.67 15.5L112 19.8301L116.33 15.5L112 11.1699L107.67 15.5ZM112 16.25H148V14.75H112V16.25Z" fill="#2F80ED"/>
</svg>
